<?xml version="1.0" standalone="no"?>
<!DOCTYPE svg PUBLIC "-//W3C//DTD SVG 20010904//EN"
 "http://www.w3.org/TR/2001/REC-SVG-20010904/DTD/svg10.dtd">
<svg version="1.0" xmlns="http://www.w3.org/2000/svg"
 width="700.000000pt" height="700.000000pt" viewBox="0 0 700.000000 700.000000"
 preserveAspectRatio="xMidYMid meet">
<metadata>
Created by potrace 1.11, written by Peter Selinger 2001-2013
</metadata>
<g transform="translate(0.000000,700.000000) scale(0.100000,-0.100000)"
fill="#000000" stroke="none">
<path d="M4465 6479 c-81 -28 -90 -30 -205 -48 -62 -10 -87 -12 -240 -28 -36
-3 -371 -7 -745 -8 -374 -2 -689 -5 -700 -8 -11 -2 -45 -8 -75 -12 -86 -10
-283 -62 -389 -102 -448 -166 -798 -500 -968 -920 -19 -48 -37 -95 -39 -103
-2 -8 -12 -44 -22 -80 l-17 -65 -110 -23 c-98 -20 -123 -26 -160 -36 -210 -56
-470 -181 -595 -285 -69 -57 -77 -66 -101 -118 -19 -40 -19 -44 -3 -74 67
-131 478 -357 925 -510 l126 -43 52 -111 c29 -60 66 -129 82 -153 16 -24 29
-45 29 -48 0 -2 16 -28 37 -57 168 -240 399 -444 660 -583 89 -47 92 -50 99
-89 12 -76 84 -280 135 -384 193 -396 533 -728 949 -928 52 -25 106 -49 120
-54 14 -4 61 -21 105 -37 l80 -29 45 -84 c74 -138 167 -264 306 -415 l31 -35
-144 -142 c-79 -78 -153 -160 -165 -181 -68 -131 36 -291 183 -281 57 4 100
31 188 118 l78 77 -5 -69 c-4 -62 -2 -75 22 -115 47 -80 120 -113 210 -94 69
14 124 71 150 153 10 33 21 67 23 75 20 62 132 438 139 465 20 78 -15 171 -79
213 -38 25 -48 27 -156 28 -100 1 -126 5 -191 29 -86 31 -180 92 -227 145
l-33 37 48 -6 c107 -14 594 -5 687 13 11 2 41 6 66 10 l46 7 56 -73 c54 -71
195 -215 287 -294 61 -53 70 -62 70 -68 0 -4 -56 -79 -125 -169 -151 -195
-168 -241 -126 -332 34 -74 100 -115 183 -115 67 0 112 32 198 142 l80 100 -6
-43 c-9 -65 11 -124 56 -168 81 -79 198 -77 274 4 39 41 49 74 77 250 11 72
22 141 24 155 2 14 9 57 15 95 6 39 14 88 18 110 4 22 7 68 7 102 0 52 -5 68
-30 105 -51 72 -129 97 -227 72 -117 -31 -294 9 -411 92 -60 43 -107 85 -107
95 0 5 19 13 43 20 201 54 459 163 692 294 94 53 300 194 410 281 216 172 495
469 543 577 41 94 -19 222 -120 258 -32 11 -52 10 -135 -5 -129 -24 -273 -47
-381 -60 -119 -15 -381 -25 -406 -16 -11 4 5 21 57 60 98 74 336 313 429 430
195 246 348 509 466 800 114 284 221 685 247 930 2 19 7 58 11 85 16 118 28
258 27 316 -1 49 -28 113 -59 141 -49 42 -125 55 -184 29 -35 -15 -46 -25
-127 -122 -90 -106 -224 -235 -334 -321 -85 -66 -262 -188 -273 -188 -4 0 -25
-12 -48 -26 -174 -110 -539 -252 -781 -304 -26 -5 -66 -14 -89 -19 -112 -24
-343 -53 -437 -55 l-55 -1 -2 65 c-2 66 -10 151 -20 205 -22 130 -88 334 -145
446 -30 58 -35 79 -21 79 16 0 158 138 214 208 103 130 158 279 122 331 -19
27 -39 26 -120 -4 -98 -37 -167 -53 -299 -71 l-40 -6 55 41 c177 133 329 341
345 472 10 86 -29 101 -150 58z"/>
</g>
</svg>
